<svg width="70" height="66" viewBox="0 0 70 66" fill="" xmlns="http://www.w3.org/2000/svg">
<path d="M50.8883 65.2066H35.9953C33.0896 65.2092 30.207 64.6912 27.4841 63.6769L15.8825 59.368C15.2471 59.1258 14.7331 58.6423 14.4524 58.0229C14.1718 57.4035 14.1473 56.6983 14.3841 56.0609C14.621 55.4235 15.1001 54.9054 15.7172 54.6196C16.3342 54.3338 17.0392 54.3033 17.6786 54.5349L29.2784 58.8438C31.4277 59.6424 33.7025 60.0498 35.9953 60.0469H50.8883C51.536 60.0469 52.1572 59.7896 52.6153 59.3316C53.0733 58.8735 53.3306 58.2523 53.3306 57.6046C53.3306 56.9568 53.0733 56.3356 52.6153 55.8776C52.1572 55.4195 51.536 55.1622 50.8883 55.1622C50.2045 55.1622 49.5488 54.8906 49.0653 54.4071C48.5818 53.9236 48.3102 53.2679 48.3102 52.5841C48.3102 51.9003 48.5818 51.2446 49.0653 50.7611C49.5488 50.2776 50.2045 50.006 50.8883 50.006H54.4031C55.0509 50.006 55.6721 49.7487 56.1301 49.2906C56.5882 48.8326 56.8455 48.2114 56.8455 47.5636C56.8455 46.9159 56.5882 46.2947 56.1301 45.8366C55.6721 45.3786 55.0509 45.1213 54.4031 45.1213C53.7194 45.1213 53.0636 44.8497 52.5801 44.3662C52.0966 43.8827 51.825 43.2269 51.825 42.5432C51.825 41.8594 52.0966 41.2036 52.5801 40.7201C53.0636 40.2367 53.7194 39.965 54.4031 39.965H57.9162C58.3994 39.9652 58.8717 39.822 59.2735 39.5536C59.6753 39.2853 59.9884 38.9038 60.1733 38.4574C60.3582 38.0111 60.4066 37.5199 60.3123 37.046C60.218 36.5722 59.9853 36.1369 59.6436 35.7953C59.4175 35.5676 59.1483 35.3871 58.8518 35.2643C58.5552 35.1416 58.2372 35.079 57.9162 35.0804C57.2325 35.0804 56.5767 34.8087 56.0932 34.3252C55.6097 33.8417 55.3381 33.186 55.3381 32.5022C55.3381 31.8185 55.6097 31.1627 56.0932 30.6792C56.5767 30.1957 57.2325 29.9241 57.9162 29.9241H61.4311C61.9135 29.9225 62.3847 29.7782 62.7851 29.5091C63.1856 29.2401 63.4974 28.8585 63.6812 28.4125C63.8651 27.9665 63.9127 27.476 63.8182 27.003C63.7236 26.5299 63.491 26.0955 63.1498 25.7544C62.9248 25.5274 62.6571 25.3473 62.3621 25.2242C62.0671 25.1012 61.7507 25.0378 61.4311 25.0377H37.0867C36.6381 25.0382 36.1971 24.9217 35.8072 24.6996C35.4174 24.4775 35.0923 24.1575 34.8641 23.7713C34.6358 23.3851 34.5123 22.946 34.5057 22.4974C34.4991 22.0488 34.6097 21.6062 34.8266 21.2135C35.6098 19.6244 36.1432 17.9241 36.4078 16.1724C36.9905 12.4135 36.272 9.01551 34.2731 6.07301C34.0158 5.70652 33.6486 5.43137 33.2246 5.28735C32.8006 5.14332 32.3417 5.1379 31.9144 5.27185C31.4871 5.4058 31.1135 5.67219 30.8476 6.03249C30.5816 6.39279 30.4372 6.82833 30.4352 7.27613C30.5194 16.1071 26.4391 22.5249 18.6359 25.8386C18.3231 25.9786 17.9855 26.0547 17.6429 26.0626C17.3002 26.0705 16.9595 26.01 16.6405 25.8847C16.3215 25.7594 16.0307 25.5717 15.7851 25.3327C15.5396 25.0936 15.3441 24.808 15.2102 24.4925C15.0763 24.1771 15.0066 23.8381 15.0052 23.4954C15.0039 23.1526 15.0709 22.8131 15.2023 22.4966C15.3337 22.1801 15.5269 21.8929 15.7706 21.652C16.0143 21.411 16.3036 21.221 16.6216 21.0932C19.8391 19.7182 22.1834 17.6986 23.5911 15.0638C24.7392 12.9136 25.3098 10.3114 25.2806 7.32942C25.2548 4.07067 27.2641 1.32067 30.3887 0.347853C33.5134 -0.624959 36.7155 0.481916 38.5442 3.17692C42.7913 9.42629 42.0247 15.9129 40.8611 19.8849H61.4311C63.1456 19.8851 64.8097 20.4652 66.1529 21.5308C67.496 22.5964 68.4393 24.085 68.8294 25.7546C69.2195 27.4241 69.0335 29.1766 68.3017 30.727C67.5698 32.2775 66.335 33.5349 64.7981 34.2949C65.6404 36.0957 65.7444 38.1547 65.0878 40.0313C64.4312 41.9078 63.0663 43.4529 61.285 44.3358C62.1277 46.1371 62.2317 48.1967 61.5748 50.0736C60.9178 51.9506 59.5522 53.4958 57.7702 54.3785C58.3128 55.5364 58.5546 56.8125 58.4732 58.0886C58.3918 59.3648 57.9898 60.5998 57.3043 61.6793C56.6189 62.7589 55.6722 63.6481 54.5519 64.2646C53.4316 64.8812 52.1739 65.2052 50.8952 65.2066H50.8883Z" fill="white"/>
<path d="M17.6398 61.3893H2.88086C2.1971 61.3893 1.54134 61.1177 1.05785 60.6342C0.574357 60.1507 0.302734 59.4949 0.302734 58.8112V23.4685C0.302734 22.7847 0.574357 22.129 1.05785 21.6455C1.54134 21.162 2.1971 20.8904 2.88086 20.8904H17.6398C18.3235 20.8904 18.9793 21.162 19.4628 21.6455C19.9463 22.129 20.2179 22.7847 20.2179 23.4685V58.8112C20.2179 59.4949 19.9463 60.1507 19.4628 60.6342C18.9793 61.1177 18.3235 61.3893 17.6398 61.3893ZM5.46414 56.233H15.0616V26.0466H5.45898L5.46414 56.233Z" fill="white"/>
</svg>
