<svg width="60" height="60" viewBox="0 0 60 60" fill="white" xmlns="http://www.w3.org/2000/svg">
<path d="M6.35638 20.6556H18.1965C18.8487 20.6556 19.4741 20.3965 19.9353 19.9354C20.3964 19.4742 20.6555 18.8488 20.6555 18.1966C20.6555 17.5444 20.3964 16.919 19.9353 16.4578C19.4741 15.9967 18.8487 15.7376 18.1965 15.7376H10.5587C13.0264 12.3008 16.2961 9.51875 20.0836 7.63314C23.8711 5.74753 28.0617 4.81545 32.2914 4.91791C37.1727 4.91813 41.948 6.34201 46.0324 9.01513C50.1168 11.6883 53.3329 15.4946 55.2867 19.9679C55.5499 20.5627 56.0381 21.0291 56.6443 21.2649C57.2505 21.5007 57.9255 21.4868 58.5214 21.2261C59.1174 20.9655 59.5859 20.4793 59.8243 19.8741C60.0627 19.2689 60.0516 18.5939 59.7936 17.9968C57.4564 12.6473 53.6098 8.09553 48.725 4.89898C43.8401 1.70244 38.1291 -9.98052e-05 32.2914 -0.000119316C26.7386 -0.14343 21.2524 1.23549 16.4273 3.98725C11.6021 6.73901 7.62197 10.7587 4.91797 15.6108V2.4589C4.91797 1.80673 4.6589 1.18126 4.19775 0.72011C3.7366 0.258955 3.11115 -0.000119316 2.45899 -0.000119316C1.80682 -0.000119316 1.18137 0.258955 0.72022 0.72011C0.259071 1.18126 0 1.80673 0 2.4589L0 18.1966C0.000442927 18.8486 0.259656 19.4738 0.720709 19.9349C1.18176 20.396 1.80696 20.6552 2.45899 20.6556H6.35638Z" fill="white"/>
<path d="M57.5403 39.3442H41.8028C41.1507 39.3442 40.5252 39.6033 40.0641 40.0644C39.6029 40.5256 39.3438 41.1511 39.3438 41.8032C39.3438 42.4554 39.6029 43.0809 40.0641 43.542C40.5252 44.0032 41.1507 44.2622 41.8028 44.2622H49.5725C47.6032 47.6759 44.7398 50.4874 41.2907 52.394C37.8417 54.3006 33.9378 55.23 29.9997 55.0819C25.1184 55.0817 20.3431 53.6578 16.2587 50.9847C12.1743 48.3116 8.95824 44.5053 7.00436 40.032C6.7423 39.4353 6.25419 38.9671 5.6472 38.73C5.04021 38.493 4.36396 38.5065 3.76692 38.7676C3.16989 39.0288 2.70088 39.5161 2.46288 40.1228C2.22488 40.7294 2.23734 41.4057 2.49753 42.0031C4.83475 47.3526 8.68133 51.9044 13.5662 55.1009C18.451 58.2974 24.162 59.9999 29.9997 60C35.2458 60.145 40.419 58.7466 44.8777 55.9785C49.3363 53.2103 52.8843 49.1941 55.0813 44.4279V57.5409C55.0813 58.1931 55.3404 58.8186 55.8016 59.2797C56.2627 59.7409 56.8882 60 57.5403 60C58.1925 60 58.818 59.7409 59.2791 59.2797C59.7402 58.8186 59.9993 58.1931 59.9993 57.5409V41.8032C59.9992 41.1511 59.7401 40.5257 59.279 40.0646C58.8178 39.6034 58.1925 39.3443 57.5403 39.3442Z" fill="white"/>
</svg>
