<svg width="80" height="80" viewBox="0 0 80 80" fill="white" xmlns="http://www.w3.org/2000/svg">
<g clip-path="url(#clip0_1786_878)">
<path d="M61.3332 33.8667C60.2665 34.1333 59.7332 35.4667 60.2665 36.5333C61.5999 39.7333 62.1332 43.2 62.1332 46.6667C62.1332 62.6667 49.0665 75.4667 33.3332 75.4667C17.5999 75.4667 4.5332 62.6667 4.5332 46.6667C4.5332 30.6667 17.3332 17.8667 33.3332 17.8667C36.2665 17.8667 39.4665 18.4 42.3999 19.2C43.4665 19.4667 44.5332 18.9333 44.7999 17.8667C45.0665 16.8 44.5332 15.7333 43.4665 15.4667C40.2665 14.4 36.7999 13.8667 33.3332 13.8667C15.1999 13.8667 0.533203 28.5333 0.533203 46.6667C0.533203 64.8 15.1999 79.4667 33.3332 79.4667C51.4665 79.4667 66.1332 64.8 66.1332 46.6667C66.1332 42.6667 65.3332 38.6667 63.9999 34.9333C63.7332 34.1333 62.3999 33.6 61.3332 33.8667ZM33.3332 40C34.3999 40 35.4665 39.2 35.4665 37.8667C35.4665 36.5333 34.6665 35.7333 33.3332 35.7333C27.4665 35.7333 22.6665 40.5333 22.6665 46.4C22.6665 52.2667 27.4665 57.0667 33.3332 57.0667C39.1999 57.0667 43.9999 52.2667 43.9999 46.4C43.9999 45.3333 43.1999 44.2667 41.8665 44.2667C40.5332 44.2667 39.9999 45.6 39.9999 46.6667C39.9999 50.4 37.0665 53.3333 33.3332 53.3333C29.5999 53.3333 26.6665 50.4 26.6665 46.6667C26.6665 42.9333 29.5999 40 33.3332 40ZM43.1999 29.6C43.7332 28.5333 43.1999 27.4667 42.1332 26.9333C39.4665 25.6 36.2665 25.0667 33.3332 25.0667C21.3332 25.0667 11.4665 34.6667 11.4665 46.6667C11.4665 58.6667 21.3332 68.5333 33.3332 68.5333C45.3332 68.5333 55.1999 58.6667 55.1999 46.6667C55.1999 43.4667 54.6665 40.5333 53.3332 37.8667C52.7999 36.8 51.7332 36.2667 50.6665 36.8C49.5999 37.3333 49.3332 38.4 49.5999 39.4667C50.6665 41.8667 51.1999 44.2667 51.1999 46.6667C51.1999 56.5333 43.1999 64.5333 33.3332 64.5333C23.4665 64.5333 15.4665 56.5333 15.4665 46.6667C15.4665 36.8 23.4665 28.8 33.3332 28.8C35.9999 28.8 38.3999 29.3333 40.5332 30.4C41.5999 30.9333 42.6665 30.4 43.1999 29.6ZM79.4665 16.2667C79.1999 15.4667 78.6665 14.9333 77.8665 14.9333L66.9332 13.0667L65.0665 2.13333C65.0665 1.33333 64.5332 0.799992 63.7332 0.533326C62.9332 0.266659 62.1332 0.533326 61.5999 1.06666L48.5332 14.1333C47.9999 14.6667 47.7332 15.2 47.9999 16L50.1332 27.2L33.3332 44H33.0665C31.4665 44 30.1332 45.3333 30.1332 46.9333C30.1332 48.5333 31.4665 49.8667 33.0665 49.8667C34.6665 49.8667 35.9999 48.5333 35.9999 46.9333L53.0665 29.8667L63.9999 32H64.2665C64.7999 32 65.3332 31.7333 65.5999 31.4667L78.6665 18.4C79.4665 17.8667 79.7332 17.0667 79.4665 16.2667ZM52.2665 16L61.8665 6.39999L63.1999 13.8667L53.8665 23.2L52.2665 16ZM63.9999 27.7333L56.7999 26.4L66.1332 17.0667L73.3332 18.4L63.9999 27.7333Z" fill="white"/>
</g>
<defs>
<clipPath id="clip0_1786_878">
<rect width="80" height="80" fill="white"/>
</clipPath>
</defs>
</svg>
